<svg xmlns="http://www.w3.org/2000/svg" width="25" height="24" viewBox="0 0 25 24" fill="none">
<g id="Left Icon">
<path id="Vector (Stroke)" fill-rule="evenodd" clip-rule="evenodd" d="M5.5 3.875C4.87868 3.875 4.375 4.37868 4.375 5V19C4.375 19.5112 4.71596 19.9428 5.18288 20.0797L15.8813 9.38128C16.223 9.03957 16.777 9.03957 17.1187 9.38128L20.625 12.8876V5C20.625 4.37868 20.1213 3.875 19.5 3.875H5.5ZM20.625 15.3624L16.5 11.2374L7.61244 20.125H19.5C20.1213 20.125 20.625 19.6213 20.625 19V15.3624ZM2.625 5C2.625 3.41218 3.91218 2.125 5.5 2.125H19.5C21.0878 2.125 22.375 3.41218 22.375 5V19C22.375 20.5878 21.0878 21.875 19.5 21.875H5.5C3.91218 21.875 2.625 20.5878 2.625 19V5ZM9 7.875C8.65482 7.875 8.375 8.15482 8.375 8.5C8.375 8.84518 8.65482 9.125 9 9.125C9.34518 9.125 9.625 8.84518 9.625 8.5C9.625 8.15482 9.34518 7.875 9 7.875ZM6.625 8.5C6.625 7.18832 7.68832 6.125 9 6.125C10.3117 6.125 11.375 7.18832 11.375 8.5C11.375 9.81168 10.3117 10.875 9 10.875C7.68832 10.875 6.625 9.81168 6.625 8.5Z" fill="#125b8c"/>
</g>
</svg>